Coordinates
version=1
nRows=25
nColumns=21
inDegrees=yes

Units are S.I. units (second, meters, Newtons, ...)
If the header above contains a line with 'inDegrees', this indicates whether rotational values are in degrees (yes) or radians (no).

endheader
time	sternoclavicular_r2	sternoclavicular_r3	unrotscap_r3	unrotscap_r2	acromioclavicular_r2	acromioclavicular_r3	acromioclavicular_r1	unrothum_r1	unrothum_r3	unrothum_r2	elv_angle	shoulder_elev	shoulder1_r2	shoulder_rot	elbow_flexion	pro_sup	deviation	flexion	wrist_hand_r1	wrist_hand_r3
      0.00000000	     -0.00048191	      0.00020412	     -0.00020412	      0.00048191	     -0.00009758	      0.00078859	      0.00035446	     -0.00035446	     -0.00078859	      0.00009758	     60.14277612	      0.00199137	    -60.14277612	    -14.02953329	    125.80075253	      0.00000000	      0.00000000	     -0.00000000	     -0.00000000	      0.00000000
      0.10101010	     -0.00048216	      0.00020422	     -0.00020422	      0.00048216	     -0.00009763	      0.00078900	      0.00035465	     -0.00035465	     -0.00078900	      0.00009763	     59.93520758	      0.00199241	    -59.93520758	    -14.02925667	    125.79970583	      0.00000000	      0.00000000	     -0.00000000	     -0.00000000	      0.00000000
      0.20202020	     -0.00048242	      0.00020433	     -0.00020433	      0.00048242	     -0.00009768	      0.00078941	      0.00035484	     -0.00035484	     -0.00078941	      0.00009768	     59.72327784	      0.00199346	    -59.72327784	    -14.02924297	    125.79844086	      0.00000000	      0.00000000	     -0.00000000	     -0.00000000	      0.00000000
      0.30303030	     -0.00048265	      0.00020443	     -0.00020443	      0.00048265	     -0.00009773	      0.00078979	      0.00035501	     -0.00035501	     -0.00078979	      0.00009773	     59.50686870	      0.00199441	    -59.50686870	    -14.02892270	    125.79297013	      0.00000000	      0.00000000	     -0.00000000	     -0.00000000	      0.00000000
      0.40404040	     -0.00048282	      0.00020450	     -0.00020450	      0.00048282	     -0.00009776	      0.00079007	      0.00035513	     -0.00035513	     -0.00079007	      0.00009776	     59.28575033	      0.00199511	    -59.28575033	    -14.02779851	    125.77883386	      0.00000000	      0.00000000	     -0.00000000	     -0.00000000	      0.00000000
      0.50505051	     -0.00048289	      0.00020453	     -0.00020453	      0.00048289	     -0.00009778	      0.00079019	      0.00035518	     -0.00035518	     -0.00079019	      0.00009778	     59.05956959	      0.00199541	    -59.05956959	    -14.02535771	    125.75175900	      0.00000000	      0.00000000	     -0.00000000	     -0.00000000	      0.00000000
      0.60606061	     -0.00048283	      0.00020450	     -0.00020450	      0.00048283	     -0.00009776	      0.00079009	      0.00035514	     -0.00035514	     -0.00079009	      0.00009776	     58.82779220	      0.00199515	    -58.82779220	    -14.02110655	    125.70771193	      0.00000000	      0.00000000	     -0.00000000	     -0.00000000	      0.00000000
      0.70707071	     -0.00048260	      0.00020441	     -0.00020441	      0.00048260	     -0.00009772	      0.00078972	      0.00035497	     -0.00035497	     -0.00078972	      0.00009772	     58.58965391	      0.00199422	    -58.58965391	    -14.01457438	    125.64287640	      0.00000000	      0.00000000	     -0.00000000	     -0.00000000	      0.00000000
      0.80808081	     -0.00048219	      0.00020423	     -0.00020423	      0.00048219	     -0.00009763	      0.00078904	      0.00035467	     -0.00035467	     -0.00078904	      0.00009763	     58.34412100	      0.00199251	    -58.34412100	    -14.00531643	    125.55362883	      0.00000000	      0.00000000	     -0.00000000	     -0.00000000	      0.00000000
      0.90909091	     -0.00048156	      0.00020397	     -0.00020397	      0.00048156	     -0.00009751	      0.00078802	      0.00035421	     -0.00035421	     -0.00078802	      0.00009751	     58.08986437	      0.00198993	    -58.08986437	    -13.99291736	    125.43653044	      0.00000000	      0.00000000	     -0.00000000	     -0.00000000	      0.00000000
      1.01010101	     -0.00048071	      0.00020360	     -0.00020360	      0.00048071	     -0.00009733	      0.00078661	      0.00035358	     -0.00035358	     -0.00078661	      0.00009733	     57.82526442	      0.00198638	    -57.82526442	    -13.97701172	    125.28839427	      0.00000000	      0.00000000	     -0.00000000	     -0.00000000	      0.00000000
      1.11111111	     -0.00048048	      0.00020351	     -0.00020351	      0.00048048	     -0.00009729	      0.00078625	      0.00035341	     -0.00035341	     -0.00078625	      0.00009729	     57.52522624	      0.00198547	    -57.52522624	    -13.95252719	    125.09412486	      0.00000000	      0.00000000	     -0.00000000	     -0.00000000	      0.00000000
      1.21212121	     -0.00047925	      0.00020299	     -0.00020299	      0.00047925	     -0.00009704	      0.00078423	      0.00035251	     -0.00035251	     -0.00078423	      0.00009704	     57.20166968	      0.00198038	    -57.20166968	    -13.92771479	    124.87350237	      0.00000000	      0.00000000	     -0.00000000	     -0.00000000	      0.00000000
      1.31313131	     -0.00047781	      0.00020238	     -0.00020238	      0.00047781	     -0.00009675	      0.00078188	      0.00035145	     -0.00035145	     -0.00078188	      0.00009675	     56.84677065	      0.00197442	    -56.84677065	    -13.89863192	    124.61441784	      0.00000000	      0.00000000	     -0.00000000	     -0.00000000	      0.00000000
      1.41414141	     -0.00047617	      0.00020168	     -0.00020168	      0.00047617	     -0.00009642	      0.00077919	      0.00035024	     -0.00035024	     -0.00077919	      0.00009642	     56.45845338	      0.00196765	    -56.45845338	    -13.86509844	    124.31472371	      0.00000000	      0.00000000	     -0.00000000	     -0.00000000	      0.00000000
      1.51515152	     -0.00047435	      0.00020091	     -0.00020091	      0.00047435	     -0.00009605	      0.00077621	      0.00034890	     -0.00034890	     -0.00077621	      0.00009605	     56.03472651	      0.00196012	    -56.03472651	    -13.82691763	    123.97244883	      0.00000000	      0.00000000	     -0.00000000	     -0.00000000	      0.00000000
      1.61616162	     -0.00047237	      0.00020007	     -0.00020007	      0.00047237	     -0.00009564	      0.00077296	      0.00034744	     -0.00034744	     -0.00077296	      0.00009564	     55.57357870	      0.00195192	    -55.57357870	    -13.78390814	    123.58580427	      0.00000000	      0.00000000	     -0.00000000	     -0.00000000	      0.00000000
      1.71717172	     -0.00047024	      0.00019917	     -0.00019917	      0.00047024	     -0.00009521	      0.00076949	      0.00034588	     -0.00034588	     -0.00076949	      0.00009521	     55.07317570	      0.00194315	    -55.07317570	    -13.73590447	    123.15317712	      0.00000000	      0.00000000	     -0.00000000	     -0.00000000	      0.00000000
      1.81818182	     -0.00046801	      0.00019823	     -0.00019823	      0.00046801	     -0.00009476	      0.00076584	      0.00034424	     -0.00034424	     -0.00076584	      0.00009476	     54.53189072	      0.00193393	    -54.53189072	    -13.68274436	    122.67312083	      0.00000000	      0.00000000	     -0.00000000	     -0.00000000	      0.00000000
      1.91919192	     -0.00046571	      0.00019725	     -0.00019725	      0.00046571	     -0.00009430	      0.00076207	      0.00034255	     -0.00034255	     -0.00076207	      0.00009430	     53.94831461	      0.00192441	    -53.94831461	    -13.62426117	    122.14434819	      0.00000000	      0.00000000	     -0.00000000	     -0.00000000	      0.00000000
      2.02020202	     -0.00046337	      0.00019626	     -0.00019626	      0.00046337	     -0.00009382	      0.00075825	      0.00034083	     -0.00034083	     -0.00075825	      0.00009382	     53.32124046	      0.00191476	    -53.32124046	    -13.56027743	    121.56572996	      0.00000000	      0.00000000	     -0.00000000	     -0.00000000	      0.00000000
      2.12121212	     -0.00046106	      0.00019528	     -0.00019528	      0.00046106	     -0.00009335	      0.00075446	      0.00033912	     -0.00033912	     -0.00075446	      0.00009335	     52.64963846	      0.00190518	    -52.64963846	    -13.49060057	    120.93630103	      0.00000000	      0.00000000	     -0.00000000	     -0.00000000	      0.00000000
      2.22222222	     -0.00045880	      0.00019433	     -0.00019433	      0.00045880	     -0.00009290	      0.00075077	      0.00033747	     -0.00033747	     -0.00075077	      0.00009290	     51.93263508	      0.00189587	    -51.93263508	    -13.41503174	    120.25528217	      0.00000000	      0.00000000	     -0.00000000	     -0.00000000	      0.00000000
      2.32323232	     -0.00045667	      0.00019342	     -0.00019342	      0.00045667	     -0.00009247	      0.00074728	      0.00033590	     -0.00033590	     -0.00074728	      0.00009247	     51.16951249	      0.00188705	    -51.16951249	    -13.33338650	    119.52211366	      0.00000000	      0.00000000	     -0.00000000	     -0.00000000	      0.00000000
      2.42424242	     -0.00045442	      0.00019247	     -0.00019247	      0.00045442	     -0.00009201	      0.00074360	      0.00033424	     -0.00033424	     -0.00074360	      0.00009201	     50.39752785	      0.00187777	    -50.39752785	    -13.24324685	    118.73424293	      0.00000000	      0.00000000	     -0.00000000	     -0.00000000	      0.00000000
